<svg width="173" height="74" viewBox="0 0 173 74" fill="none" xmlns="http://www.w3.org/2000/svg">
<path d="M22.904 54.128C22.4773 54.5547 21.944 54.8107 21.304 54.896C18.7013 55.2373 14.7333 55.408 9.4 55.408L1.912 55.28C1.272 55.2373 0.952 54.9387 0.952 54.384L1.08 53.744C1.67733 52.2933 2.53067 50.3093 3.64 47.792C4.792 45.2747 7.18133 40.6453 10.808 33.904C14.4347 27.12 18.1467 20.9333 21.944 15.344C25.8267 9.712 28.3653 6.42666 29.56 5.488C30.1147 5.01866 30.6267 4.784 31.096 4.784C31.4373 4.784 31.608 4.976 31.608 5.36C31.608 6.04266 31.032 7.55733 29.88 9.904C28.728 12.2507 27.7253 14.1493 26.872 15.6C16.9307 33.52 10.744 45.68 8.312 52.08C8.26933 52.208 8.248 52.336 8.248 52.464C8.248 53.1893 8.99467 53.552 10.488 53.552C13.3893 53.552 16.0773 52.6133 18.552 50.736C22.2213 47.792 25.5067 44.4427 28.408 40.688C28.7493 40.3467 29.0907 40.176 29.432 40.176C29.7733 40.176 29.944 40.3893 29.944 40.816C29.944 41.2427 29.7093 41.9893 29.24 43.056C26.4667 49.072 24.3547 52.7627 22.904 54.128ZM38.3945 47.792C33.4025 52.4853 30.2025 54.832 28.7945 54.832C28.0692 54.832 27.7065 54.3413 27.7065 53.36C27.7065 52.3787 28.0905 50.9493 28.8585 49.072C29.6265 47.1947 30.3945 45.552 31.1625 44.144L32.3145 42.096C35.5572 36.4213 38.0105 32.3467 39.6745 29.872C40.3998 28.8053 41.3172 27.9093 42.4265 27.184C43.5785 26.416 44.6452 26.032 45.6265 26.032C45.9678 26.032 46.1385 26.1813 46.1385 26.48C46.1385 26.6933 45.9892 27.0987 45.6905 27.696C45.1785 28.6347 43.9198 30.8747 41.9145 34.416C39.9092 37.9573 38.7145 40.0907 38.3305 40.816C36.5812 43.888 35.7065 45.936 35.7065 46.96C35.7065 47.344 35.8345 47.536 36.0905 47.536C36.5172 47.536 37.8825 46.4693 40.1865 44.336C41.9785 42.544 44.3465 39.9627 47.2905 36.592C47.4185 36.464 47.5252 36.4 47.6105 36.4C47.6958 36.4 47.7385 36.4853 47.7385 36.656C47.7385 37.4667 47.4185 38.256 46.7785 39.024C43.6212 42.5227 40.8265 45.4453 38.3945 47.792ZM46.9065 22.384C45.8398 22.384 45.3065 21.744 45.3065 20.464C45.3065 19.2693 45.7545 18.0747 46.6505 16.88C47.5465 15.6427 48.5278 15.024 49.5945 15.024C50.8745 15.024 51.5145 15.7493 51.5145 17.2C51.5145 18.3947 51.0238 19.568 50.0425 20.72C49.0612 21.8293 48.0158 22.384 46.9065 22.384ZM50.4035 27.76C50.1475 27.632 50.0195 27.4827 50.0195 27.312C50.0195 27.056 50.2542 26.928 50.7235 26.928H52.6435C57.0808 19.76 60.7075 14.512 63.5235 11.184C66.4675 7.77067 69.3902 5.232 72.2915 3.568C75.1928 1.86133 77.4328 1.008 79.0115 1.008C80.0355 1.008 80.5475 1.456 80.5475 2.352C80.5475 4.31466 79.5235 6.32 77.4755 8.368C75.4702 10.3733 73.7635 11.6747 72.3555 12.272C72.0995 12.3573 71.9288 12.4 71.8435 12.4C71.6728 12.4 71.5875 12.2933 71.5875 12.08C71.5875 11.952 71.6515 11.7813 71.7795 11.568C74.2542 7.94133 75.4915 5.53067 75.4915 4.336C75.4915 4.03733 75.3635 3.888 75.1075 3.888C74.5955 3.888 73.7422 4.35733 72.5475 5.296C69.6462 7.472 64.5688 14.6827 57.3155 26.928H62.2435C62.8408 26.928 63.1395 27.0133 63.1395 27.184C63.1395 27.3973 62.9688 27.632 62.6275 27.888C62.3288 28.144 62.0942 28.272 61.9235 28.272H57.3795C56.7822 28.272 56.4835 28.4213 56.4835 28.72C56.4835 28.848 56.5048 29.2107 56.5475 29.808C56.6328 30.4053 56.6755 30.8747 56.6755 31.216C56.6755 35.184 55.4595 39.9627 53.0275 45.552C50.6382 51.0987 47.5235 56.432 43.6835 61.552C41.4648 64.496 39.4168 66.928 37.5395 68.848C35.6622 70.768 34.2542 72.0267 33.3155 72.624C32.3342 73.264 31.6088 73.584 31.1395 73.584C30.5422 73.584 30.2435 73.1787 30.2435 72.368C30.2435 68.4427 34.3182 59.2907 42.4675 44.912C42.4675 44.8693 42.8728 44.1013 43.6835 42.608C44.4942 41.1147 45.6675 38.9813 47.2035 36.208C48.7822 33.392 50.3608 30.704 51.9395 28.144L50.4035 27.76ZM54.9475 33.008C54.9475 32.4107 54.8835 31.856 54.7555 31.344C48.0142 42.9493 43.3208 51.5467 40.6755 57.136C38.2435 62.1707 37.0275 65.1147 37.0275 65.968C37.0275 66.1387 37.0915 66.224 37.2195 66.224C37.8168 66.224 39.2888 64.8373 41.6355 62.064C44.1102 59.1627 46.9475 54.576 50.1475 48.304C53.3475 42.032 54.9475 36.9333 54.9475 33.008ZM73.85 32.304C74.362 31.2373 74.618 30.2987 74.618 29.488C74.618 28.8053 74.4047 28.464 73.978 28.464C73.722 28.464 73.4233 28.5493 73.082 28.72C72.7833 28.848 72.5487 28.9973 72.378 29.168L72.058 29.424C70.7353 30.576 69.0713 32.688 67.066 35.76C65.1033 38.7893 64.122 40.7307 64.122 41.584C64.122 41.7547 64.1647 41.84 64.25 41.84C64.506 41.84 65.0607 41.6267 65.914 41.2C66.81 40.7733 68.0687 39.7707 69.69 38.192C71.354 36.6133 72.7407 34.6507 73.85 32.304ZM70.97 46.96C73.2313 44.8693 76.474 41.4133 80.698 36.592C80.826 36.464 80.9327 36.4 81.018 36.4C81.1033 36.4 81.146 36.4853 81.146 36.656C81.146 37.4667 80.826 38.256 80.186 39.024C77.0287 42.5227 74.234 45.4453 71.802 47.792C70.01 49.584 67.8767 51.312 65.402 52.976C62.9273 54.5973 60.8793 55.408 59.258 55.408C57.2953 55.408 56.314 54.0427 56.314 51.312C56.314 46.7893 57.978 42.0533 61.306 37.104C64.6767 32.1547 68.5593 28.8053 72.954 27.056C74.7887 26.288 76.4527 25.904 77.946 25.904C79.61 25.904 80.442 26.5653 80.442 27.888C80.442 30.3627 78.6927 33.2 75.194 36.4C71.6953 39.6 67.77 42.032 63.418 43.696C63.2473 43.7387 63.098 43.888 62.97 44.144C62.33 45.8933 62.01 47.4507 62.01 48.816C62.01 50.352 62.586 51.12 63.738 51.12C65.5727 51.12 67.9833 49.7333 70.97 46.96ZM72.449 49.584C73.1317 47.8773 74.0917 45.8933 75.329 43.632C76.609 41.3707 77.7183 39.536 78.657 38.128L80.065 36.08C80.6623 35.2267 81.2597 34.8 81.857 34.8C82.3263 34.8 82.561 35.0347 82.561 35.504L82.369 36.144C80.833 40.0267 80.065 43.376 80.065 46.192C80.065 48.4533 80.5557 50.3093 81.537 51.76C82.561 53.168 84.1397 53.872 86.273 53.872C89.473 53.872 92.0543 52.4853 94.017 49.712C95.9797 46.896 96.961 43.8667 96.961 40.624C96.961 37.8507 96.001 33.904 94.081 28.784C92.2037 23.6213 91.265 20.1227 91.265 18.288C91.265 14.32 92.9503 11.1413 96.321 8.752C99.7343 6.32 103.468 5.104 107.521 5.104C108.246 5.104 108.95 5.14666 109.633 5.232C110.358 5.31733 111.148 5.46666 112.001 5.68C112.854 5.85066 113.537 6.14933 114.049 6.576C114.561 7.00267 114.817 7.536 114.817 8.176C114.817 9.02933 114.22 10.48 113.025 12.528C111.83 14.576 110.828 16.1333 110.017 17.2C109.718 17.4133 109.462 17.52 109.249 17.52C108.95 17.52 108.801 17.264 108.801 16.752C108.801 15.5573 108.929 13.936 109.185 11.888C109.185 8.56 107.905 6.896 105.345 6.896C103.169 6.896 101.313 7.64266 99.777 9.136C98.2837 10.6293 97.537 12.4427 97.537 14.576C97.537 17.392 98.5183 21.3173 100.481 26.352C102.486 31.3867 103.489 35.2693 103.489 38C103.489 43.12 101.462 47.344 97.409 50.672C93.3983 53.9573 88.8757 55.6 83.841 55.6C82.9877 55.6 81.9637 55.5147 80.769 55.344C79.5743 55.1733 78.3157 54.896 76.993 54.512C75.6703 54.1707 74.561 53.6587 73.665 52.976C72.7263 52.2507 72.257 51.44 72.257 50.544C72.257 50.2027 72.321 49.8827 72.449 49.584ZM114.386 44.336C116.178 42.544 118.546 39.9627 121.49 36.592C121.618 36.464 121.725 36.4 121.81 36.4C121.895 36.4 121.938 36.4853 121.938 36.656C121.938 37.4667 121.618 38.256 120.978 39.024C117.821 42.5227 115.026 45.4453 112.594 47.792C107.474 52.7413 104.082 55.216 102.418 55.216C101.821 55.216 101.522 54.832 101.522 54.064C101.522 53.168 101.863 51.824 102.546 50.032C103.229 48.24 103.911 46.6613 104.594 45.296L105.618 43.312C106.599 41.5627 108.221 38.576 110.482 34.352C112.743 30.128 114.919 26.1387 117.01 22.384C119.143 18.6293 121.149 15.2373 123.026 12.208H117.97C117.543 12.208 117.33 12.1013 117.33 11.888C117.33 11.6747 117.501 11.4613 117.842 11.248C118.183 11.0347 118.546 10.928 118.93 10.928C119.869 10.928 121.511 10.9067 123.858 10.864C125.949 7.57866 127.741 4.976 129.234 3.056C130.557 1.392 131.474 0.559998 131.986 0.559998C132.285 0.559998 132.434 0.751998 132.434 1.136C132.434 2.032 131.623 3.952 130.002 6.896L127.826 10.864H134.418C134.802 10.864 134.994 10.9707 134.994 11.184C134.994 11.8667 134.375 12.208 133.138 12.208H127.122C117.266 30.896 112.082 40.688 111.57 41.584C109.778 44.8693 108.882 47.0027 108.882 47.984C108.882 48.2827 108.989 48.432 109.202 48.432C109.799 48.432 111.527 47.0667 114.386 44.336ZM134.062 49.968C130.52 53.2107 128.088 54.832 126.766 54.832C126.168 54.832 125.87 54.4907 125.87 53.808C125.87 52.9547 126.232 51.6533 126.958 49.904C127.726 48.1547 128.494 46.6187 129.262 45.296L130.414 43.312C130.584 43.0133 130.67 42.8213 130.67 42.736C130.67 42.6507 130.627 42.608 130.542 42.608C130.371 42.608 130.051 42.8427 129.582 43.312C128.302 44.72 126.83 46.2347 125.166 47.856C123.544 49.4347 122.222 50.672 121.198 51.568L119.726 52.848C118.062 54.128 116.782 54.768 115.886 54.768C114.947 54.768 114.477 54.0427 114.477 52.592C114.477 51.8667 114.691 50.7573 115.117 49.264C115.502 47.7707 115.8 46.768 116.014 46.256C116.995 43.8667 118.211 41.5413 119.661 39.28C121.155 37.0187 122.904 34.864 124.91 32.816C126.915 30.7253 129.24 29.04 131.885 27.76C134.574 26.48 137.347 25.84 140.206 25.84C142.595 25.84 143.79 26.2027 143.79 26.928C143.79 27.3547 143.256 27.568 142.19 27.568C138.264 27.568 134.574 29.2533 131.118 32.624C127.704 35.952 124.931 39.792 122.798 44.144C122.2 45.3387 121.902 46.3413 121.902 47.152C121.902 47.6213 122.051 47.856 122.35 47.856C122.862 47.856 123.523 47.4933 124.334 46.768C124.846 46.2987 125.528 45.68 126.382 44.912C127.278 44.144 128.707 42.672 130.67 40.496C132.632 38.32 134.19 36.2933 135.342 34.416C135.512 34.0747 135.768 33.6693 136.11 33.2C136.494 32.7307 137.198 32.112 138.222 31.344C139.246 30.5333 140.27 30.128 141.294 30.128C141.848 30.128 142.126 30.2773 142.126 30.576C142.126 30.6613 142.062 30.8107 141.934 31.024C141.763 31.3653 141.272 32.2187 140.462 33.584C139.694 34.9493 138.968 36.2507 138.286 37.488C137.603 38.6827 136.878 40.0053 136.11 41.456C135.342 42.864 134.723 44.08 134.253 45.104C133.827 46.128 133.614 46.8107 133.614 47.152C133.614 47.408 133.72 47.536 133.934 47.536C134.574 47.536 136.131 46.2987 138.606 43.824C140.483 41.8613 142.68 39.4507 145.198 36.592C145.326 36.464 145.432 36.4 145.518 36.4C145.603 36.4 145.646 36.4853 145.646 36.656C145.646 37.4667 145.326 38.256 144.686 39.024C140.504 43.6747 136.963 47.3227 134.062 49.968ZM150.261 44.336C152.053 42.544 154.421 39.9627 157.365 36.592C157.493 36.464 157.6 36.4 157.685 36.4C157.77 36.4 157.813 36.4853 157.813 36.656C157.813 37.4667 157.493 38.256 156.853 39.024C153.696 42.5227 150.901 45.4453 148.469 47.792C143.349 52.7413 139.957 55.216 138.293 55.216C137.696 55.216 137.397 54.832 137.397 54.064C137.397 53.168 137.738 51.824 138.421 50.032C139.104 48.24 139.786 46.6613 140.469 45.296L141.493 43.312C142.474 41.5627 144.096 38.576 146.357 34.352C148.618 30.128 150.794 26.1387 152.885 22.384C155.018 18.6293 157.024 15.2373 158.901 12.208H153.845C153.418 12.208 153.205 12.1013 153.205 11.888C153.205 11.6747 153.376 11.4613 153.717 11.248C154.058 11.0347 154.421 10.928 154.805 10.928C155.744 10.928 157.386 10.9067 159.733 10.864C161.824 7.57866 163.616 4.976 165.109 3.056C166.432 1.392 167.349 0.559998 167.861 0.559998C168.16 0.559998 168.309 0.751998 168.309 1.136C168.309 2.032 167.498 3.952 165.877 6.896L163.701 10.864H170.293C170.677 10.864 170.869 10.9707 170.869 11.184C170.869 11.8667 170.25 12.208 169.013 12.208H162.997C153.141 30.896 147.957 40.688 147.445 41.584C145.653 44.8693 144.757 47.0027 144.757 47.984C144.757 48.2827 144.864 48.432 145.077 48.432C145.674 48.432 147.402 47.0667 150.261 44.336ZM166.417 46.704C165.649 48.7947 164.433 50.5653 162.769 52.016C161.105 53.424 159.547 54.384 158.097 54.896C156.689 55.408 155.409 55.664 154.257 55.664C151.142 55.664 149.584 54.448 149.584 52.016C149.584 49.5413 150.95 47.3013 153.681 45.296C154.961 44.3573 156.347 43.7387 157.841 43.44C158.054 43.44 158.161 43.5253 158.161 43.696C158.161 43.7813 158.118 43.8667 158.033 43.952C156.966 44.7627 155.942 46.0213 154.961 47.728C154.022 49.4347 153.553 50.928 153.553 52.208C153.553 53.488 154.086 54.128 155.153 54.128C156.006 54.128 156.838 53.7867 157.649 53.104C158.502 52.3787 159.142 51.6533 159.569 50.928L160.209 49.904C161.062 48.5387 161.766 46.3627 162.321 43.376C162.918 40.3893 163.302 37.744 163.473 35.44L163.665 31.984C163.665 31.6427 163.601 31.472 163.473 31.472L163.217 31.6L156.881 39.024C156.411 39.5787 156.091 39.856 155.921 39.856C155.707 39.856 155.601 39.7067 155.601 39.408C155.601 38.8533 155.75 38.4267 156.049 38.128L156.625 37.424C161.489 31.9627 164.262 28.656 164.945 27.504C165.585 26.5227 166.523 25.6693 167.76 24.944C168.955 24.2613 170.363 23.92 171.985 23.92C172.411 23.92 172.625 24.0907 172.625 24.432C172.625 24.6453 172.454 24.8373 172.113 25.008C171.985 25.0507 171.814 25.1573 171.601 25.328C171.43 25.456 171.089 25.7973 170.577 26.352C170.107 26.9067 169.681 27.5467 169.297 28.272C168.913 28.9973 168.571 30.0213 168.273 31.344C167.974 32.624 167.825 34.0533 167.825 35.632C167.825 40.5387 167.355 44.2293 166.417 46.704Z" fill="white"/>
</svg>
